PathFileType	4	(X/Y/Z)	s01c0202.trc
DataRate	CameraRate	NumFrames	NumMarkers	Units	OrigDataRate	OrigDataStartFrame	OrigNumFrames
200	200	4	48	mm	200	1000	2000
Frame#	Time	racr			lacr			c7			jug			rlel			rdr			llel			ldr			s2			lic			ric			lasi			rasi			rpsi			lpsi			rgt			lgt			rth1			rth2			rth3			rth4			rlfc			rsh1			rsh2			rsh3			rsh4			rlmal			rmmal			rcal			rtoe			rmt5			lth1			lth2			lth4			lth3			llfc			lsh1			lsh2			lsh3			lsh4			llmal			lmmal			lcal			ltoe			lmt5			SBIKE			LBIKE			RBIKE			
		X1	Y1	Z1	X2	Y2	Z2	X3	Y3	Z3	X4	Y4	Z4	X5	Y5	Z5	X6	Y6	Z6	X7	Y7	Z7	X8	Y8	Z8	X9	Y9	Z9	X10	Y10	Z10	X11	Y11	Z11	X12	Y12	Z12	X13	Y13	Z13	X14	Y14	Z14	X15	Y15	Z15	X16	Y16	Z16	X17	Y17	Z17	X18	Y18	Z18	X19	Y19	Z19	X20	Y20	Z20	X21	Y21	Z21	X22	Y22	Z22	X23	Y23	Z23	X24	Y24	Z24	X25	Y25	Z25	X26	Y26	Z26	X27	Y27	Z27	X28	Y28	Z28	X29	Y29	Z29	X30	Y30	Z30	X31	Y31	Z31	X32	Y32	Z32	X33	Y33	Z33	X34	Y34	Z34	X35	Y35	Z35	X36	Y36	Z36	X37	Y37	Z37	X38	Y38	Z38	X39	Y39	Z39	X40	Y40	Z40	X41	Y41	Z41	X42	Y42	Z42	X43	Y43	Z43	X44	Y44	Z44	X45	Y45	Z45	X46	Y46	Z46	X47	Y47	Z47	X48	Y48	Z48	
1000	5.0000	558.568970	1228.867676	-76.976074	555.020630	1221.092163	-436.434937	531.876587	1340.079834	-252.075638	519.864746	1171.984131	-252.898483	467.291534	979.861755	52.122864	681.540039	893.718018	-27.977694	481.338379	979.281128	-578.313171	657.983948	883.122131	-439.621155	-0.377741	1153.764771	-232.237167	149.139145	1169.447388	-416.660950	159.782150	1148.396606	-78.274841	159.977570	1114.948730	-393.680725	188.140045	1112.834106	-112.771042	30.577711	1190.341675	-180.287079	24.033142	1196.361206	-286.414215	123.664017	1051.618286	-50.934959	97.951164	1025.509277	-433.732452	239.978455	1001.790161	-47.680813	320.105469	982.621155	-57.805515	404.390350	955.800171	-73.659492	333.461700	1034.281006	-76.237801	483.690521	888.704285	-108.726547	394.701050	820.939880	-76.468895	332.361115	764.068909	-80.497963	261.290710	710.733887	-88.480164	364.267487	726.931458	-115.282516	160.660950	638.802185	-104.441193	201.976730	618.888794	-182.155792	111.061806	643.149414	-159.892288	279.969177	429.918884	-134.964874	187.635468	490.509430	-70.580032	147.926819	903.810730	-440.228271	206.791519	836.847717	-439.428589	247.973648	872.537720	-438.503021	257.797119	769.942810	-421.378967	318.859436	665.336121	-409.527771	262.823456	568.506836	-443.301300	246.169632	483.752106	-436.538391	227.470123	400.740265	-423.649963	301.547272	475.422729	-410.745178	200.180695	276.471405	-408.845367	250.506973	316.107971	-330.345917	152.660522	252.489609	-368.322601	419.062866	175.949402	-374.441498	312.011322	171.549850	-441.012299	-223.958862	893.354309	-252.370911	-12.671894	84.450035	-456.190216	-21.630659	80.929039	-56.096355	
1001	5.0050	557.926575	1228.852295	-74.854935	556.513611	1220.567383	-434.314117	532.440552	1339.561890	-250.136551	520.221985	1171.491333	-250.970947	466.573853	978.989197	52.871307	681.050720	893.514648	-28.205595	481.942749	980.359497	-578.080750	658.408020	882.915833	-439.838898	-0.382813	1154.217041	-233.413818	150.484070	1168.878784	-417.028931	159.148895	1149.118286	-78.465645	160.350220	1114.754883	-394.077515	187.526886	1113.729980	-112.638779	31.006613	1190.380615	-182.025360	24.337276	1196.838623	-287.706879	122.991699	1052.813354	-51.350780	97.165131	1025.594849	-434.439331	239.227814	1004.048645	-48.127903	319.670837	986.397095	-57.800816	404.494354	961.051331	-73.390747	332.236511	1038.258179	-76.066513	485.270294	896.159851	-108.062981	396.926819	828.123901	-76.185204	335.300568	770.734375	-80.467781	264.876099	716.572998	-88.830292	368.387238	733.757019	-114.259583	165.126785	642.592651	-105.562286	207.429108	623.598083	-182.821838	115.521820	645.391907	-160.883804	290.559357	437.354126	-134.651794	196.219849	495.583313	-70.730629	145.313156	903.362000	-441.397522	202.705978	835.538635	-441.762268	244.837952	870.377686	-440.383087	252.861206	767.726257	-423.382080	312.290588	662.031616	-411.642609	255.056717	565.563599	-444.816193	238.050598	480.878754	-437.486298	218.928055	398.092560	-424.241882	293.696960	472.451202	-412.685150	191.797195	273.997284	-408.951691	242.583160	313.298767	-330.257263	144.415451	250.860703	-368.354584	409.619476	170.414108	-374.682098	302.381531	167.489380	-441.134033	-224.014679	893.364685	-252.387894	-12.682525	84.491875	-456.166779	-21.640095	80.932106	-56.100040	
1002	5.0100	557.254211	1228.797485	-72.767715	558.021362	1219.945435	-432.132477	533.005737	1338.979492	-248.185623	520.441833	1171.069824	-249.016815	465.876709	978.172363	53.605137	680.544434	893.308533	-28.366619	482.516937	981.402710	-577.896606	658.697693	882.882874	-440.034180	-0.437477	1154.802490	-234.620255	151.562088	1167.880615	-416.979065	158.458740	1150.042969	-78.705605	160.649384	1114.617920	-394.455170	187.091263	1114.553955	-113.086014	30.839878	1190.830933	-183.304855	24.605192	1197.290527	-289.005035	122.417465	1054.164795	-51.751957	96.255569	1025.875000	-435.208008	238.475174	1006.780762	-48.402462	319.141266	990.259888	-57.976566	404.401154	966.287109	-73.212570	330.989655	1042.372192	-76.071388	485.584137	903.392395	-107.653633	399.100342	835.188599	-76.172089	338.330414	776.712158	-80.304962	268.684296	721.399292	-89.153603	372.167175	739.698547	-113.834610	170.233002	645.632446	-106.565514	213.129349	627.442993	-183.344360	120.195404	646.855042	-161.623947	301.310242	444.364807	-134.443893	205.041656	499.816498	-71.355957	142.904236	903.104248	-442.565826	198.948578	834.187927	-443.257141	241.922546	868.724243	-442.247162	248.427444	765.622864	-425.616333	306.210541	659.291321	-413.725983	247.583893	563.168945	-446.609436	230.181717	478.752808	-438.396118	210.542175	396.197052	-424.639740	286.170197	469.851593	-414.366730	183.364319	272.273773	-409.066895	234.466003	310.907227	-330.136108	136.078842	249.961029	-368.350372	399.897980	165.313156	-374.921906	292.568604	164.023056	-441.158356	-224.061234	893.376221	-252.419052	-12.693609	84.501617	-456.164642	-21.658173	80.934525	-56.095478	
1003	5.0150	556.606628	1228.932007	-69.442802	559.476685	1219.272827	-429.968903	533.542725	1338.312744	-246.209625	520.691772	1170.460083	-247.000183	464.962097	977.327087	54.413177	680.078003	893.089905	-28.454327	483.221710	982.333740	-577.648682	659.027649	882.369873	-439.906708	-0.531197	1155.424805	-235.735870	153.469131	1167.330078	-417.432251	157.773788	1150.939819	-78.859634	161.168152	1114.433228	-394.986053	186.239532	1115.693604	-113.020874	30.588633	1191.488159	-184.484085	24.830889	1197.999023	-290.239838	121.614624	1055.820557	-52.687126	95.314651	1026.203735	-435.876160	237.672241	1009.754028	-48.926430	318.510284	994.172424	-58.303165	404.184265	971.400208	-73.078148	329.833832	1046.582520	-76.211922	485.844482	910.254395	-107.174194	401.162140	841.376892	-75.689430	341.389008	781.687500	-80.153641	272.735992	725.347717	-89.260971	376.090790	745.080872	-113.284836	175.609161	647.946960	-107.340172	218.981369	630.448792	-183.715454	125.249657	647.476685	-162.032730	312.082825	450.632996	-134.449356	214.276474	503.391083	-71.365913	140.730270	903.012146	-443.712769	195.722916	833.290771	-444.902008	239.162613	867.383667	-444.222534	244.295898	764.178162	-427.565399	300.781189	657.090637	-415.724976	240.613495	561.552246	-447.661194	222.728210	477.288910	-439.199707	202.481400	394.950806	-425.062622	278.997040	467.880615	-415.998474	174.917404	271.297424	-409.190002	226.195908	308.945374	-329.988525	127.689644	249.806442	-368.329559	390.033783	160.926376	-375.134216	282.589417	161.362717	-441.286896	-224.095367	893.397705	-252.467102	-12.711889	84.513412	-456.173065	-21.672743	80.952095	-56.094616	
